# ProBuilder 6.0.5
# https://unity3d.com/unity/features/worldbuilding/probuilder
# 28/05/2025 9:40:30

mtllib ./Arena.mtl
o Arena

g Arena
v -38 23 18
v -38 23 20
v -40 23 20
v -40 23 18
v -40 0.0001 18
v -40 0.0001 20
v -38 0.0001 20
v -38 0.0001 18
v 40 23 18
v 40 23 20
v 38 23 20
v 38 23 18
v 38 0.0001 18
v 38 0.0001 20
v 40 0.0001 20
v 40 0.0001 18
v -40 24 -20
v -38 24 -20
v -38 24 -18
v -40 24 -18
v -40 0.0001 -20
v -40 0.0001 -18
v -38 0.0001 -18
v -38 0.0001 -20
v 38 24 -20
v 40 24 -20
v 40 24 -18
v 38 24 -18
v 38 0.0001 -20
v 38 0.0001 -18
v 40 0.0001 -18
v 40 0.0001 -20
v -40 23 -20
v -38 23 -20
v -40 23 -18
v -38 24 20
v -40 24 20
v 40 24 20
v 38 24 20
v 38 23 -20
v 40 23 -20
v 40 23 -18
v -38 23 -18
v 38 23 -18
v -38 4 -20
v -40 4 -20
v -40 4 18
v -40 4 20
v -38 4 20
v -40 4 -18
v 40 4 -20
v 38 4 -20
v 40 4 -18
v 40 4 20
v 40 4 18
v 38 4 20
v -38 23 8
v -40 23 8
v -40 0.0001001358 8
v -38 0.0001001358 8
v 40 23 8
v 38 23 8
v 38 0.0001001358 8
v 40 0.0001001358 8
v -40 4 8
v 40 4 8
v -38 23 -8
v -40 23 -8
v -40 0.0001001358 -8
v -38 0.0001001358 -8
v 38 0.0001001358 -8
v 40 23 -8
v 38 23 -8
v 40 0.0001001358 -8
v -40 4 -8
v 40 4 -8
v -38 4 18
v -38 4 8
v 38 4 8
v 38 4 18
v -38 4 -8
v -38 4 -18
v 38 4 -18
v 38 4 -8
v 45.5 4 -8
v 45.5 4 8
v 45.5 0 -8
v 45.5 0 8
v -45.5 4 8
v -45.5 4 -8
v -45.5 0 8
v -45.5 0 -8
v -38 19 18
v -38 19 8
v 38 19 8
v 38 19 18
v -38 19 -8
v -38 19 -18
v 38 19 -8
v 38 19 -18
v -38 19 -20
v -40 19 -20
v -40 19 18
v -40 19 20
v -38 19 20
v -40 19 -18
v 40 19 -20
v 38 19 -20
v 40 19 -18
v 40 19 20
v 40 19 18
v 38 19 20
v -40 19 8
v 40 19 8
v -40 19 -8
v 40 19 -8
v 31 23 18
v 31 23 20
v 31 0.0001001358 20
v 31 0.0001001358 18
v 31 24 -20
v 31 24 -18
v 31 0.0001001358 -18
v 31 0.0001001358 -20
v 31 24 20
v 31 23 -20
v 31 23 -18
v 31 4 20
v 31 4 -20
v 31 4 -18
v 31 4 18
v 31 19 -18
v 31 19 18
v 31 19 20
v 31 19 -20
v -31 23 18
v -31 23 20
v -31 0.0001001358 20
v -31 0.0001001358 18
v -31 24 -20
v -31 24 -18
v -31 0.0001001358 -18
v -31 0.0001001358 -20
v -31 24 20
v -31 23 -20
v -31 23 -18
v -31 4 20
v -31 4 -20
v -31 4 -18
v -31 4 18
v -31 19 -18
v -31 19 18
v -31 19 20
v -31 19 -20

vt 0 -1
vt 0 1
vt 2 1
vt 2 -1
vt 78 -1
vt 78 1
vt 80 1
vt 80 -1
vt 0 -39
vt 0 -37
vt 2 -37
vt 2 -39
vt 78 -39
vt 78 -37
vt 80 -37
vt 80 -39
vt 2 0
vt 0 0
vt 38 0
vt 38 1
vt 2 -21.9999
vt 0 -21.9999
vt 0 -18
vt 2 -18
vt 0 -9
vt 2 -9
vt 0 -11
vt 2 -11
vt 78 -11
vt 80 -11
vt 36 -21.9999
vt 26 -21.9999
vt 26 -18
vt 36 -18
vt 10 -18
vt 10 -21.9999
vt 2 -35
vt 0 -35
vt 0 -25
vt 2 -25
vt 0 -27
vt 2 -27
vt 76 -9
vt 76 -25
vt 78 -27
vt 80 -27
vt 0 -2.9999
vt 2 -2.9999
vt 40 -8
vt 40 8
vt 45.5 -8
vt 45.5 8
vt -8 3.9999
vt 8 3.9999
vt -8 -0.0001
vt 8 -0.0001
vt 40 3.9999
vt 45.5 3.9999
vt 40 -0.0001
vt 45.5 -0.0001
vt -45.5 3.9999
vt -40 3.9999
vt -45.5 -0.0001
vt -40 -0.0001
vt -45.5 8
vt -45.5 -8
vt -40 8
vt -40 -8
vt 0 -15
vt 2 -15
vt 0 -3
vt 10 -3
vt 10 1
vt 26 -3
vt 36 -3
vt 26 1
vt 36 1
vt 2 -3
vt 7 -1
vt 7 1
vt 71 1
vt 71 -1
vt 71 -37
vt 71 -39
vt 76 0
vt 69 0
vt 69 1
vt 76 1
vt 7 0
vt 7 -37
vt 76 -37
vt 69 -37
vt 76 -21.9999
vt 69 -21.9999
vt 69 -18
vt 76 -18
vt 7 -18
vt 7 -21.9999
vt 69 -3
vt 76 -3
vt 7 -3
vt 76 -1
vt 69 -1
vt 9 1
vt 9 -1
vt 9 -37
vt 9 -39
vt 7 -35
vt 76 -35
vt 69 -35

vn 0 1 0
vn 0 -1 0
vn 0 0 -1
vn -1 0 0
vn 0 0 1
vn 1 0 0

usemtl ProBuilderDefault
f 139/87/1 60/43/1 8/88/1
f 60/43/1 139/87/1 63/25/1
f 63/25/1 139/87/1 120/80/1
f 120/80/1 13/2/1 63/25/1
f 63/29/2 13/5/2 120/82/2
f 120/82/2 139/105/2 63/29/2
f 63/29/2 139/105/2 60/28/2
f 8/4/2 60/28/2 139/105/2
f 142/110/1 23/109/1 70/44/1
f 71/39/1 30/38/1 123/108/1
f 71/39/1 123/108/1 142/110/1
f 70/44/1 71/39/1 142/110/1
f 142/106/2 71/45/2 70/42/2
f 142/106/2 123/83/2 71/45/2
f 123/83/2 30/14/2 71/45/2
f 70/42/2 23/11/2 142/106/2
f 2/2/1 1/1/1 4/4/1
f 4/4/1 3/3/1 2/2/1
f 7/3/2 6/2/2 5/1/2
f 5/1/2 8/4/2 7/3/2
f 10/2/1 9/1/1 12/4/1
f 12/4/1 11/3/1 10/2/1
f 15/7/2 14/6/2 13/5/2
f 13/5/2 16/8/2 15/7/2
f 19/2/1 18/1/1 17/4/1
f 17/4/1 20/3/1 19/2/1
f 23/11/2 22/10/2 21/9/2
f 21/9/2 24/12/2 23/11/2
f 27/2/1 26/1/1 25/4/1
f 25/4/1 28/3/1 27/2/1
f 31/15/2 30/14/2 29/13/2
f 29/13/2 32/16/2 31/15/2
f 18/2/3 34/18/3 33/17/3
f 33/17/3 17/3/3 18/2/3
f 17/2/4 33/18/4 35/17/4
f 35/17/4 20/3/4 17/2/4
f 37/2/5 3/18/5 2/17/5
f 2/17/5 36/3/5 37/2/5
f 39/2/5 11/18/5 10/17/5
f 10/17/5 38/3/5 39/2/5
f 26/2/3 41/18/3 40/17/3
f 40/17/3 25/3/3 26/2/3
f 27/2/6 42/18/6 41/17/6
f 41/17/6 26/3/6 27/2/6
f 3/2/2 35/10/2 43/11/2
f 43/11/2 2/3/2 3/2/2
f 37/20/4 20/2/4 35/18/4
f 35/18/4 3/19/4 37/20/4
f 36/2/1 19/10/1 20/11/1
f 20/11/1 37/3/1 36/2/1
f 38/2/1 27/10/1 28/11/1
f 28/11/1 39/3/1 38/2/1
f 11/2/2 44/10/2 42/11/2
f 42/11/2 10/3/2 11/2/2
f 10/18/6 42/19/6 27/20/6
f 27/20/6 38/2/6 10/18/6
f 46/24/3 45/23/3 24/22/3
f 24/22/3 21/21/3 46/24/3
f 47/23/4 5/22/4 6/21/4
f 6/21/4 48/24/4 47/23/4
f 48/23/5 6/22/5 7/21/5
f 7/21/5 49/24/5 48/23/5
f 46/23/4 21/22/4 22/21/4
f 22/21/4 50/24/4 46/23/4
f 52/24/3 51/23/3 32/22/3
f 32/22/3 29/21/3 52/24/3
f 51/24/6 53/23/6 31/22/6
f 31/22/6 32/21/6 51/24/6
f 55/24/6 54/23/6 15/22/6
f 15/22/6 16/21/6 55/24/6
f 56/23/5 14/22/5 15/21/5
f 15/21/5 54/24/5 56/23/5
f 1/2/1 57/25/1 58/26/1
f 58/26/1 4/3/1 1/2/1
f 8/4/2 5/1/2 59/27/2
f 59/27/2 60/28/2 8/4/2
f 9/2/1 61/25/1 62/26/1
f 62/26/1 12/3/1 9/2/1
f 16/8/2 13/5/2 63/29/2
f 63/29/2 64/30/2 16/8/2
f 65/33/4 59/32/4 5/31/4
f 5/31/4 47/34/4 65/33/4
f 66/35/6 55/23/6 16/22/6
f 16/22/6 64/36/6 66/35/6
f 67/39/1 43/38/1 35/37/1
f 35/37/1 68/40/1 67/39/1
f 57/25/1 67/39/1 68/40/1
f 68/40/1 58/26/1 57/25/1
f 70/42/2 69/41/2 22/10/2
f 22/10/2 23/11/2 70/42/2
f 60/28/1 70/42/1 69/41/1
f 69/41/1 59/27/1 60/28/1
f 63/25/1 71/39/1 70/44/1
f 70/44/1 60/43/1 63/25/1
f 72/39/1 42/38/1 44/37/1
f 44/37/1 73/40/1 72/39/1
f 61/25/1 72/39/1 73/40/1
f 73/40/1 62/26/1 61/25/1
f 63/29/2 60/28/2 70/42/2
f 70/42/2 71/45/2 63/29/2
f 74/46/2 71/45/2 30/14/2
f 30/14/2 31/15/2 74/46/2
f 64/30/1 74/46/1 71/45/1
f 71/45/1 63/29/1 64/30/1
f 50/23/4 22/22/4 69/36/4
f 69/36/4 75/35/4 50/23/4
f 53/34/6 76/33/6 74/32/6
f 74/32/6 31/31/6 53/34/6
f 60/36/6 78/35/6 77/23/6
f 77/23/6 8/22/6 60/36/6
f 79/33/4 63/32/4 13/31/4
f 13/31/4 80/34/4 79/33/4
f 82/34/6 81/33/6 70/32/6
f 70/32/6 23/31/6 82/34/6
f 83/23/4 30/22/4 71/36/4
f 71/36/4 84/35/4 83/23/4
f 76/3/5 84/2/5 71/47/5
f 71/47/5 74/48/5 76/3/5
f 64/47/3 63/48/3 79/3/3
f 79/3/3 66/2/3 64/47/3
f 85/51/2 86/52/2 66/50/2
f 66/50/2 76/49/2 85/51/2
f 87/55/4 88/56/4 86/54/4
f 86/54/4 85/53/4 87/55/4
f 74/59/5 87/60/5 85/58/5
f 85/58/5 76/57/5 74/59/5
f 88/63/3 64/64/3 66/62/3
f 66/62/3 86/61/3 88/63/3
f 64/67/1 88/65/1 87/66/1
f 87/66/1 74/68/1 64/67/1
f 65/3/3 78/2/3 60/47/3
f 60/47/3 59/48/3 65/3/3
f 81/3/5 75/2/5 69/47/5
f 69/47/5 70/48/5 81/3/5
f 89/65/2 90/66/2 75/68/2
f 75/68/2 65/67/2 89/65/2
f 91/55/6 92/56/6 90/54/6
f 90/54/6 89/53/6 91/55/6
f 92/63/5 69/64/5 75/62/5
f 75/62/5 90/61/5 92/63/5
f 59/59/3 91/60/3 89/58/3
f 89/58/3 65/57/3 59/59/3
f 59/50/1 69/49/1 92/51/1
f 92/51/1 91/52/1 59/50/1
f 79/2/2 84/69/2 76/70/2
f 76/70/2 66/3/2 79/2/2
f 81/70/2 78/3/2 65/2/2
f 65/2/2 75/69/2 81/70/2
f 94/72/6 93/71/6 77/23/6
f 77/23/6 78/35/6 94/72/6
f 57/73/6 1/2/6 93/71/6
f 93/71/6 94/72/6 57/73/6
f 95/74/4 79/33/4 80/34/4
f 80/34/4 96/75/4 95/74/4
f 62/76/4 95/74/4 96/75/4
f 96/75/4 12/77/4 62/76/4
f 97/74/6 94/72/6 78/35/6
f 78/35/6 81/33/6 97/74/6
f 67/76/6 57/73/6 94/72/6
f 94/72/6 97/74/6 67/76/6
f 98/75/6 97/74/6 81/33/6
f 81/33/6 82/34/6 98/75/6
f 43/77/6 67/76/6 97/74/6
f 97/74/6 98/75/6 43/77/6
f 99/72/4 84/35/4 79/33/4
f 79/33/4 95/74/4 99/72/4
f 73/73/4 99/72/4 95/74/4
f 95/74/4 62/76/4 73/73/4
f 100/71/4 83/23/4 84/35/4
f 84/35/4 99/72/4 100/71/4
f 44/2/4 100/71/4 99/72/4
f 99/72/4 73/73/4 44/2/4
f 102/78/3 101/71/3 45/23/3
f 45/23/3 46/24/3 102/78/3
f 33/3/3 34/2/3 101/71/3
f 101/71/3 102/78/3 33/3/3
f 103/71/4 47/23/4 48/24/4
f 48/24/4 104/78/4 103/71/4
f 4/2/4 103/71/4 104/78/4
f 104/78/4 3/3/4 4/2/4
f 104/71/5 48/23/5 49/24/5
f 49/24/5 105/78/5 104/71/5
f 3/2/5 104/71/5 105/78/5
f 105/78/5 2/3/5 3/2/5
f 102/71/4 46/23/4 50/24/4
f 50/24/4 106/78/4 102/71/4
f 33/2/4 102/71/4 106/78/4
f 106/78/4 35/3/4 33/2/4
f 108/78/3 107/71/3 51/23/3
f 51/23/3 52/24/3 108/78/3
f 40/3/3 41/2/3 107/71/3
f 107/71/3 108/78/3 40/3/3
f 107/78/6 109/71/6 53/23/6
f 53/23/6 51/24/6 107/78/6
f 41/3/6 42/2/6 109/71/6
f 109/71/6 107/78/6 41/3/6
f 111/78/6 110/71/6 54/23/6
f 54/23/6 55/24/6 111/78/6
f 9/3/6 10/2/6 110/71/6
f 110/71/6 111/78/6 9/3/6
f 112/71/5 56/23/5 54/24/5
f 54/24/5 110/78/5 112/71/5
f 11/2/5 112/71/5 110/78/5
f 110/78/5 10/3/5 11/2/5
f 113/74/4 65/33/4 47/34/4
f 47/34/4 103/75/4 113/74/4
f 58/76/4 113/74/4 103/75/4
f 103/75/4 4/77/4 58/76/4
f 61/73/6 9/2/6 111/71/6
f 111/71/6 114/72/6 61/73/6
f 114/72/6 111/71/6 55/23/6
f 55/23/6 66/35/6 114/72/6
f 115/72/4 75/35/4 65/33/4
f 65/33/4 113/74/4 115/72/4
f 68/73/4 115/72/4 113/74/4
f 113/74/4 58/76/4 68/73/4
f 106/71/4 50/23/4 75/35/4
f 75/35/4 115/72/4 106/71/4
f 35/2/4 106/71/4 115/72/4
f 115/72/4 68/73/4 35/2/4
f 72/76/6 61/73/6 114/72/6
f 114/72/6 116/74/6 72/76/6
f 116/74/6 114/72/6 66/35/6
f 66/35/6 76/33/6 116/74/6
f 42/77/6 72/76/6 116/74/6
f 116/74/6 109/75/6 42/77/6
f 109/75/6 116/74/6 76/33/6
f 76/33/6 53/34/6 109/75/6
f 11/2/1 12/1/1 117/79/1
f 117/79/1 118/80/1 11/2/1
f 14/6/2 119/81/2 120/82/2
f 120/82/2 13/5/2 14/6/2
f 28/2/1 25/1/1 121/79/1
f 121/79/1 122/80/1 28/2/1
f 30/14/2 123/83/2 124/84/2
f 124/84/2 29/13/2 30/14/2
f 125/87/5 118/86/5 11/85/5
f 11/85/5 39/88/5 125/87/5
f 121/80/3 25/2/3 40/18/3
f 40/18/3 126/89/3 121/80/3
f 39/2/1 28/10/1 122/90/1
f 122/90/1 125/80/1 39/2/1
f 11/88/2 118/87/2 127/92/2
f 127/92/2 44/91/2 11/88/2
f 128/95/5 119/94/5 14/93/5
f 14/93/5 56/96/5 128/95/5
f 124/98/3 129/97/3 52/23/3
f 52/23/3 29/22/3 124/98/3
f 130/95/5 123/94/5 30/93/5
f 30/93/5 83/96/5 130/95/5
f 120/98/3 131/97/3 80/23/3
f 80/23/3 13/22/3 120/98/3
f 132/99/5 130/95/5 83/96/5
f 83/96/5 100/100/5 132/99/5
f 127/87/5 132/99/5 100/100/5
f 100/100/5 44/88/5 127/87/5
f 133/101/3 96/71/3 80/23/3
f 80/23/3 131/97/3 133/101/3
f 117/80/3 12/2/3 96/71/3
f 96/71/3 133/101/3 117/80/3
f 134/99/5 128/95/5 56/96/5
f 56/96/5 112/100/5 134/99/5
f 118/87/5 134/99/5 112/100/5
f 112/100/5 11/88/5 118/87/5
f 135/101/3 108/71/3 52/23/3
f 52/23/3 129/97/3 135/101/3
f 126/80/3 40/2/3 108/71/3
f 108/71/3 135/101/3 126/80/3
f 137/87/1 136/103/1 1/102/1
f 1/102/1 2/88/1 137/87/1
f 118/80/1 117/79/1 136/103/1
f 136/103/1 137/87/1 118/80/1
f 138/104/2 7/3/2 8/4/2
f 8/4/2 139/105/2 138/104/2
f 119/81/2 138/104/2 139/105/2
f 139/105/2 120/82/2 119/81/2
f 141/87/1 140/103/1 18/102/1
f 18/102/1 19/88/1 141/87/1
f 122/80/1 121/79/1 140/103/1
f 140/103/1 141/87/1 122/80/1
f 142/106/2 23/11/2 24/12/2
f 24/12/2 143/107/2 142/106/2
f 123/83/2 142/106/2 143/107/2
f 143/107/2 124/84/2 123/83/2
f 144/80/5 137/89/5 118/86/5
f 118/86/5 125/87/5 144/80/5
f 36/2/5 2/18/5 137/89/5
f 137/89/5 144/80/5 36/2/5
f 140/87/3 121/80/3 126/89/3
f 126/89/3 145/86/3 140/87/3
f 18/88/3 140/87/3 145/86/3
f 145/86/3 34/85/3 18/88/3
f 144/87/1 141/92/1 19/91/1
f 19/91/1 36/88/1 144/87/1
f 125/80/1 122/90/1 141/92/1
f 141/92/1 144/87/1 125/80/1
f 137/80/2 2/2/2 43/10/2
f 43/10/2 146/90/2 137/80/2
f 118/87/2 137/80/2 146/90/2
f 146/90/2 127/92/2 118/87/2
f 147/97/5 138/98/5 119/94/5
f 119/94/5 128/95/5 147/97/5
f 49/23/5 7/22/5 138/98/5
f 138/98/5 147/97/5 49/23/5
f 148/95/3 129/97/3 124/98/3
f 124/98/3 143/94/3 148/95/3
f 45/96/3 148/95/3 143/94/3
f 143/94/3 24/93/3 45/96/3
f 149/97/5 142/98/5 123/94/5
f 123/94/5 130/95/5 149/97/5
f 82/23/5 23/22/5 142/98/5
f 142/98/5 149/97/5 82/23/5
f 150/95/3 131/97/3 120/98/3
f 120/98/3 139/94/3 150/95/3
f 77/96/3 150/95/3 139/94/3
f 139/94/3 8/93/3 77/96/3
f 151/101/5 149/97/5 130/95/5
f 130/95/5 132/99/5 151/101/5
f 98/71/5 82/23/5 149/97/5
f 149/97/5 151/101/5 98/71/5
f 146/80/5 151/101/5 132/99/5
f 132/99/5 127/87/5 146/80/5
f 43/2/5 98/71/5 151/101/5
f 151/101/5 146/80/5 43/2/5
f 152/99/3 133/101/3 131/97/3
f 131/97/3 150/95/3 152/99/3
f 93/100/3 152/99/3 150/95/3
f 150/95/3 77/96/3 93/100/3
f 136/87/3 117/80/3 133/101/3
f 133/101/3 152/99/3 136/87/3
f 1/88/3 136/87/3 152/99/3
f 152/99/3 93/100/3 1/88/3
f 153/101/5 147/97/5 128/95/5
f 128/95/5 134/99/5 153/101/5
f 105/71/5 49/23/5 147/97/5
f 147/97/5 153/101/5 105/71/5
f 137/80/5 153/101/5 134/99/5
f 134/99/5 118/87/5 137/80/5
f 2/2/5 105/71/5 153/101/5
f 153/101/5 137/80/5 2/2/5
f 154/99/3 135/101/3 129/97/3
f 129/97/3 148/95/3 154/99/3
f 101/100/3 154/99/3 148/95/3
f 148/95/3 45/96/3 101/100/3
f 145/87/3 126/80/3 135/101/3
f 135/101/3 154/99/3 145/87/3
f 34/88/3 145/87/3 154/99/3
f 154/99/3 101/100/3 34/88/3

